{"asset":{"version":"2.0","generator":"VECTARY"},"nodes":[{"translation":[-0.13836914062500003,0,0],"scale":[0.001,0.001,0.001],"rotation":[-0.7071067811865476,0,0,0.7071067811865476],"name":"T","mesh":0},{"translation":[-0.0795703125,0,0],"scale":[0.001,0.001,0.001],"rotation":[-0.7071067811865476,0,0,0.7071067811865476],"name":"E","mesh":1},{"translation":[-0.029384765625000003,0,0],"scale":[0.001,0.001,0.001],"rotation":[-0.7071067811865476,0,0,0.7071067811865476],"name":"X","mesh":2},{"translation":[0.03108398437500001,0,0],"scale":[0.001,0.001,0.001],"rotation":[-0.7071067811865476,0,0,0.7071067811865476],"name":"A","mesh":3},{"translation":[0.09120117187500001,0,0],"scale":[0.001,0.001,0.001],"rotation":[-0.7071067811865476,0,0,0.7071067811865476],"name":"S","mesh":4},{"translation":[0.01447999999999999,0.09801000000000003,-0.06221000000000001],"scale":[1,1,1],"rotation":[0,-0.7071067811865477,0,0.7071067811865477],"name":"Point Light","extensions":{"KHR_lights_punctual":{"light":0}}},{"translation":[0.012960150815937783,0.07915657178649406,0.7094802827660808],"scale":[1,1,1],"rotation":[-0.05551508117864193,0.009118325104356173,0.0005070076163492532,0.9984160830296643],"name":"Camera","camera":0}],"materials":[{"pbrMetallicRoughness":{"baseColorFactor":[0.6320426176206414,0.6320426176206414,0.6320426176206414,1],"metallicFactor":1,"roughnessFactor":0},"name":"Sharp Shapes Shiny","emissiveFactor":[0,0,0],"alphaMode":"OPAQUE","doubleSided":false}],"meshes":[{"primitives":[{"mode":4,"attributes":{"POSITION":1,"NORMAL":2,"TEXCOORD_0":3},"material":0,"indices":0}]},{"primitives":[{"mode":4,"attributes":{"POSITION":5,"NORMAL":6,"TEXCOORD_0":7},"material":0,"indices":4}]},{"primitives":[{"mode":4,"attributes":{"POSITION":9,"NORMAL":10,"TEXCOORD_0":11},"material":0,"indices":8}]},{"primitives":[{"mode":4,"attributes":{"POSITION":13,"NORMAL":14,"TEXCOORD_0":15},"material":0,"indices":12}]},{"primitives":[{"mode":4,"attributes":{"POSITION":17,"NORMAL":18,"TEXCOORD_0":19},"material":0,"indices":16}]}],"accessors":[{"bufferView":0,"byteOffset":0,"componentType":5125,"count":1836,"type":"SCALAR"},{"bufferView":1,"byteOffset":0,"componentType":5126,"count":1836,"max":[62.79296875,4.012392530044779e-15,65.52734375],"min":[2.734375,-55,-0.29296875],"type":"VEC3"},{"bufferView":2,"byteOffset":0,"componentType":5126,"count":1836,"type":"VEC3"},{"bufferView":3,"byteOffset":0,"componentType":5126,"count":1836,"type":"VEC2"},{"bufferView":4,"byteOffset":0,"componentType":5125,"count":3084,"type":"SCALAR"},{"bufferView":5,"byteOffset":0,"componentType":5126,"count":3084,"max":[53.61328125,3.970534702890313e-15,64.84375],"min":[2.83203125,-55,-0.390625],"type":"VEC3"},{"bufferView":6,"byteOffset":0,"componentType":5126,"count":3084,"type":"VEC3"},{"bufferView":7,"byteOffset":0,"componentType":5126,"count":3084,"type":"VEC2"},{"bufferView":8,"byteOffset":0,"componentType":5125,"count":3180,"type":"SCALAR"},{"bufferView":9,"byteOffset":0,"componentType":5126,"count":3180,"max":[67.28515625,3.958575021191556e-15,64.6484375],"min":[0.68359375,-55,-0.29296875],"type":"VEC3"},{"bufferView":10,"byteOffset":0,"componentType":5126,"count":3180,"type":"VEC3"},{"bufferView":11,"byteOffset":0,"componentType":5126,"count":3180,"type":"VEC2"},{"bufferView":12,"byteOffset":0,"componentType":5125,"count":2640,"type":"SCALAR"},{"bufferView":13,"byteOffset":0,"componentType":5126,"count":2640,"max":[65.0390625,3.964554650282698e-15,64.74609375],"min":[1.953125,-55,-0.29296875],"type":"VEC3"},{"bufferView":14,"byteOffset":0,"componentType":5126,"count":2640,"type":"VEC3"},{"bufferView":15,"byteOffset":0,"componentType":5126,"count":2640,"type":"VEC2"},{"bufferView":16,"byteOffset":0,"componentType":5125,"count":2928,"type":"SCALAR"},{"bufferView":17,"byteOffset":0,"componentType":5126,"count":2928,"max":[44.43359375,3.982493961072597e-15,65.0390625],"min":[4.00390625,-55,-0.9765625],"type":"VEC3"},{"bufferView":18,"byteOffset":0,"componentType":5126,"count":2928,"type":"VEC3"},{"bufferView":19,"byteOffset":0,"componentType":5126,"count":2928,"type":"VEC2"}],"bufferViews":[{"buffer":0,"byteOffset":0,"byteLength":7344,"target":34963},{"buffer":0,"byteOffset":7344,"byteLength":22032,"target":34962},{"buffer":0,"byteOffset":29376,"byteLength":22032,"target":34962},{"buffer":0,"byteOffset":51408,"byteLength":14688,"target":34962},{"buffer":0,"byteOffset":66096,"byteLength":12336,"target":34963},{"buffer":0,"byteOffset":78432,"byteLength":37008,"target":34962},{"buffer":0,"byteOffset":115440,"byteLength":37008,"target":34962},{"buffer":0,"byteOffset":152448,"byteLength":24672,"target":34962},{"buffer":0,"byteOffset":177120,"byteLength":12720,"target":34963},{"buffer":0,"byteOffset":189840,"byteLength":38160,"target":34962},{"buffer":0,"byteOffset":228000,"byteLength":38160,"target":34962},{"buffer":0,"byteOffset":266160,"byteLength":25440,"target":34962},{"buffer":0,"byteOffset":291600,"byteLength":10560,"target":34963},{"buffer":0,"byteOffset":302160,"byteLength":31680,"target":34962},{"buffer":0,"byteOffset":333840,"byteLength":31680,"target":34962},{"buffer":0,"byteOffset":365520,"byteLength":21120,"target":34962},{"buffer":0,"byteOffset":386640,"byteLength":11712,"target":34963},{"buffer":0,"byteOffset":398352,"byteLength":35136,"target":34962},{"buffer":0,"byteOffset":433488,"byteLength":35136,"target":34962},{"buffer":0,"byteOffset":468624,"byteLength":23424,"target":34962}],"extensions":{"KHR_lights_punctual":{"lights":[{"name":"Point Light","type":"point","intensity":3,"range":10000,"color":[1,1,1]}]}},"cameras":[{"name":"Camera","type":"perspective","extras":{"targetDistance":0.714},"perspective":{"aspectRatio":1.3823191733639495,"yfov":0.6108652381980153,"zfar":47.0967096709671,"znear":0.003780978097809781}}],"scene":0,"scenes":[{"nodes":[0,1,2,3,4,5,6],"name":"TexasWords"}],"extensionsUsed":["KHR_texture_transform","KHR_lights_punctual"],"extensionsRequired":["KHR_lights_punctual"],"buffers":[{"byteLength":492048,"uri":"TexasWords.bin"}]}