{"asset":{"version":"2.0","generator":"VECTARY"},"nodes":[{"translation":[0,0,0],"scale":[0.010936420354472865,0.010936420354472867,0.010936420354472867],"rotation":[-0.7071067811865476,0,0,0.7071067811865476],"name":"Star Wars: TIE Fighter","children":[1]},{"translation":[0,0,4.571879863739015],"scale":[1,1,1],"rotation":[2.2204460492503128e-16,0,0,1],"name":"RootNode (model correction matrix)","children":[2]},{"translation":[0,0,0],"scale":[1,1,1],"rotation":[0,0,0,1],"name":"Root","children":[3,32]},{"translation":[0,0,0],"scale":[1,1,1],"rotation":[0,0,0,1],"name":"TieFighter","children":[4,8,10,12,14,16,22,24,26,29]},{"translation":[0,0,0],"scale":[1,1,1],"rotation":[0,0,0,1],"name":"WingGreebles1","children":[5,6,7]},{"translation":[0,0,0],"scale":[1,1,1],"rotation":[0,0,0,1],"name":"WingGreebles1_0","mesh":0},{"translation":[0,0,0],"scale":[1,1,1],"rotation":[0,0,0,1],"name":"WingGreebles1_0","mesh":1},{"translation":[0,0,0],"scale":[1,1,1],"rotation":[0,0,0,1],"name":"WingGreebles1_1","mesh":2},{"translation":[0,0,0],"scale":[1,1,1],"rotation":[0,0,0,1],"name":"HullPlates","children":[9]},{"translation":[0,0,0],"scale":[1,1,1],"rotation":[0,0,0,1],"name":"HullPlates_0","mesh":3},{"translation":[0,0,0],"scale":[1,1,1],"rotation":[0,0,0,1],"name":"HullGreebles2","children":[11]},{"translation":[0,0,0],"scale":[1,1,1],"rotation":[0,0,0,1],"name":"HullGreebles2_0","mesh":4},{"translation":[0,0,0],"scale":[1,1,1],"rotation":[0,0,0,1],"name":"HullGreebles1","children":[13]},{"translation":[0,0,0],"scale":[1,1,1],"rotation":[0,0,0,1],"name":"HullGreebles1_0","mesh":5},{"translation":[0,0,0],"scale":[1,1,1],"rotation":[0,0,0,1],"name":"ArmGreebles","children":[15]},{"translation":[0,0,0],"scale":[1,1,1],"rotation":[0,0,0,1],"name":"ArmGreebles_0","mesh":6},{"translation":[0,0,0],"scale":[1,1,1],"rotation":[0,0,0,1],"name":"MainHull","children":[17,18,19,20,21]},{"translation":[0,0,0],"scale":[1,1,1],"rotation":[0,0,0,1],"name":"MainHull_0","mesh":7},{"translation":[0,0,0],"scale":[1,1,1],"rotation":[0,0,0,1],"name":"MainHull_1","mesh":8},{"translation":[0,0,0],"scale":[1,1,1],"rotation":[0,0,0,1],"name":"MainHull_2","mesh":9},{"translation":[0,0,0],"scale":[1,1,1],"rotation":[0,0,0,1],"name":"MainHull_3","mesh":10},{"translation":[0,0,0],"scale":[1,1,1],"rotation":[0,0,0,1],"name":"MainHull_4","mesh":11},{"translation":[0,0,0],"scale":[1,1,1],"rotation":[0,0,0,1],"name":"WingPanels","children":[23]},{"translation":[0,0,0],"scale":[1,1,1],"rotation":[0,0,0,1],"name":"WingPanels_0","mesh":12},{"translation":[0,0,0],"scale":[1,1,1],"rotation":[0,0,0,1],"name":"ArmPlates","children":[25]},{"translation":[0,0,0],"scale":[1,1,1],"rotation":[0,0,0,1],"name":"ArmPlates_0","mesh":13},{"translation":[0,0,0],"scale":[1,1,1],"rotation":[0,0,0,1],"name":"Window","children":[27,28]},{"translation":[0,0,0],"scale":[1,1,1],"rotation":[0,0,0,1],"name":"Window_0","mesh":14},{"translation":[0,0,0],"scale":[1,1,1],"rotation":[0,0,0,1],"name":"Window_1","mesh":15},{"translation":[0,0,0],"scale":[1,1,1],"rotation":[0,0,0,1],"name":"Engines","children":[30,31]},{"translation":[0,0,0],"scale":[1,1,1],"rotation":[0,0,0,1],"name":"Engines_0","mesh":16},{"translation":[0,0,0],"scale":[1,1,1],"rotation":[0,0,0,1],"name":"Engines_1","mesh":17},{"translation":[0,0,0],"scale":[1,1,1],"rotation":[0,0,0,1],"name":"Cube","children":[33]},{"translation":[0,0,0],"scale":[1,1,1],"rotation":[0,0,0,1],"name":"Cube_0","mesh":18},{"translation":[-0.09373849440266604,0.1608520336184366,0.6893008907203986],"scale":[1,1,1],"rotation":[-0.11311364558478526,-0.06709395051900119,-0.007655966408380455,0.9912845661890574],"name":"Camera","camera":0}],"materials":[{"pbrMetallicRoughness":{"baseColorFactor":[0.49693299509999994,0.49693299509999994,0.49693299509999994,1],"metallicFactor":0,"roughnessFactor":0.6},"name":"Material","emissiveFactor":[0,0,0],"alphaMode":"OPAQUE","doubleSided":true},{"pbrMetallicRoughness":{"baseColorFactor":[0,0,0,1],"metallicFactor":0,"roughnessFactor":0.6},"name":"Material 1","emissiveFactor":[0,0,0],"alphaMode":"OPAQUE","doubleSided":true},{"pbrMetallicRoughness":{"baseColorFactor":[0.014139134399999994,0.014139134399999994,0.014139134399999994,0.9895198171],"metallicFactor":0,"roughnessFactor":0.6},"name":"Material 2","emissiveFactor":[0,0,0],"alphaMode":"BLEND","doubleSided":true},{"pbrMetallicRoughness":{"baseColorFactor":[0.0930589628,0.0930589628,0.0930589628,1],"metallicFactor":0,"roughnessFactor":0.6},"name":"Material 3","emissiveFactor":[0,0,0],"alphaMode":"OPAQUE","doubleSided":true},{"pbrMetallicRoughness":{"baseColorFactor":[0.5583403896000001,0.1844749945,0.012286488399999997,1],"metallicFactor":0,"roughnessFactor":0.6},"name":"Material 4","emissiveFactor":[0,0,0],"alphaMode":"OPAQUE","doubleSided":true},{"pbrMetallicRoughness":{"baseColorFactor":[0.010299700799999997,0.010299700799999997,0.010299700799999997,1],"metallicFactor":0,"roughnessFactor":0.6},"name":"Material 5","emissiveFactor":[0,0,0],"alphaMode":"OPAQUE","doubleSided":true},{"pbrMetallicRoughness":{"baseColorFactor":[0.9799863810000001,0,0,1],"metallicFactor":0,"roughnessFactor":0.6},"name":"Material 6","emissiveFactor":[1,0,0],"alphaMode":"OPAQUE","doubleSided":true}],"meshes":[{"primitives":[{"mode":4,"attributes":{"POSITION":1,"NORMAL":2,"TEXCOORD_0":3},"material":0,"indices":0}]},{"primitives":[{"mode":4,"attributes":{"POSITION":5,"NORMAL":6,"TEXCOORD_0":7},"material":0,"indices":4}]},{"primitives":[{"mode":4,"attributes":{"POSITION":9,"NORMAL":10,"TEXCOORD_0":11},"material":1,"indices":8}]},{"primitives":[{"mode":4,"attributes":{"POSITION":13,"NORMAL":14,"TEXCOORD_0":15},"material":0,"indices":12}]},{"primitives":[{"mode":4,"attributes":{"POSITION":17,"NORMAL":18,"TEXCOORD_0":19},"material":0,"indices":16}]},{"primitives":[{"mode":4,"attributes":{"POSITION":21,"NORMAL":22,"TEXCOORD_0":23},"material":0,"indices":20}]},{"primitives":[{"mode":4,"attributes":{"POSITION":25,"NORMAL":26,"TEXCOORD_0":27},"material":0,"indices":24}]},{"primitives":[{"mode":4,"attributes":{"POSITION":29,"NORMAL":30,"TEXCOORD_0":31},"material":0,"indices":28}]},{"primitives":[{"mode":4,"attributes":{"POSITION":33,"NORMAL":34,"TEXCOORD_0":35},"material":2,"indices":32}]},{"primitives":[{"mode":4,"attributes":{"POSITION":37,"NORMAL":38,"TEXCOORD_0":39},"material":3,"indices":36}]},{"primitives":[{"mode":4,"attributes":{"POSITION":41,"NORMAL":42,"TEXCOORD_0":43},"material":1,"indices":40}]},{"primitives":[{"mode":4,"attributes":{"POSITION":45,"NORMAL":46,"TEXCOORD_0":47},"material":4,"indices":44}]},{"primitives":[{"mode":4,"attributes":{"POSITION":49,"NORMAL":50,"TEXCOORD_0":51},"material":5,"indices":48}]},{"primitives":[{"mode":4,"attributes":{"POSITION":53,"NORMAL":54,"TEXCOORD_0":55},"material":0,"indices":52}]},{"primitives":[{"mode":4,"attributes":{"POSITION":57,"NORMAL":58,"TEXCOORD_0":59},"material":2,"indices":56}]},{"primitives":[{"mode":4,"attributes":{"POSITION":61,"NORMAL":62,"TEXCOORD_0":63},"material":3,"indices":60}]},{"primitives":[{"mode":4,"attributes":{"POSITION":65,"NORMAL":66,"TEXCOORD_0":67},"material":0,"indices":64}]},{"primitives":[{"mode":4,"attributes":{"POSITION":69,"NORMAL":70,"TEXCOORD_0":71},"material":6,"indices":68}]},{"primitives":[{"mode":4,"attributes":{"POSITION":73,"NORMAL":74,"TEXCOORD_0":75},"material":3,"indices":72}]}],"accessors":[{"bufferView":0,"byteOffset":0,"componentType":5125,"count":128805,"type":"SCALAR"},{"bufferView":1,"byteOffset":0,"componentType":5126,"count":128805,"max":[3.607189893722534,3.1363699436187744,3.8737499713897705],"min":[-3.607189893722534,-3.1363699436187744,-2.969059944152832],"type":"VEC3"},{"bufferView":2,"byteOffset":0,"componentType":5126,"count":128805,"type":"VEC3"},{"bufferView":3,"byteOffset":0,"componentType":5126,"count":128805,"type":"VEC2"},{"bufferView":4,"byteOffset":0,"componentType":5125,"count":22317,"type":"SCALAR"},{"bufferView":5,"byteOffset":0,"componentType":5126,"count":22317,"max":[-2.8323099613189697,3.1363699436187744,3.8737499713897705],"min":[-3.6040799617767334,-3.1363699436187744,-2.969059944152832],"type":"VEC3"},{"bufferView":6,"byteOffset":0,"componentType":5126,"count":22317,"type":"VEC3"},{"bufferView":7,"byteOffset":0,"componentType":5126,"count":22317,"type":"VEC2"},{"bufferView":8,"byteOffset":0,"componentType":5125,"count":96,"type":"SCALAR"},{"bufferView":9,"byteOffset":0,"componentType":5126,"count":96,"max":[3.506040096282959,0.7951400279998779,0.8203999996185303],"min":[-3.506040096282959,-0.7951400279998779,-0.8203999996185303],"type":"VEC3"},{"bufferView":10,"byteOffset":0,"componentType":5126,"count":96,"type":"VEC3"},{"bufferView":11,"byteOffset":0,"componentType":5126,"count":96,"type":"VEC2"},{"bufferView":12,"byteOffset":0,"componentType":5125,"count":6888,"type":"SCALAR"},{"bufferView":13,"byteOffset":0,"componentType":5126,"count":6888,"max":[1.3510600328445435,1.0963900089263916,1.0532300472259521],"min":[-1.3510600328445435,-1.0882799625396729,-1.0532300472259521],"type":"VEC3"},{"bufferView":14,"byteOffset":0,"componentType":5126,"count":6888,"type":"VEC3"},{"bufferView":15,"byteOffset":0,"componentType":5126,"count":6888,"type":"VEC2"},{"bufferView":16,"byteOffset":0,"componentType":5125,"count":987,"type":"SCALAR"},{"bufferView":17,"byteOffset":0,"componentType":5126,"count":987,"max":[0.07208000123500824,1.4729000329971313,1.4321000576019287],"min":[-0.07208000123500824,-0.7478299736976624,0.5234100222587585],"type":"VEC3"},{"bufferView":18,"byteOffset":0,"componentType":5126,"count":987,"type":"VEC3"},{"bufferView":19,"byteOffset":0,"componentType":5126,"count":987,"type":"VEC2"},{"bufferView":20,"byteOffset":0,"componentType":5125,"count":3360,"type":"SCALAR"},{"bufferView":21,"byteOffset":0,"componentType":5126,"count":3360,"max":[1.0916099548339844,1.4812999963760376,1.0307400226593018],"min":[-1.0916099548339844,-0.7804800271987915,-0.8909000158309937],"type":"VEC3"},{"bufferView":22,"byteOffset":0,"componentType":5126,"count":3360,"type":"VEC3"},{"bufferView":23,"byteOffset":0,"componentType":5126,"count":3360,"type":"VEC2"},{"bufferView":24,"byteOffset":0,"componentType":5125,"count":3168,"type":"SCALAR"},{"bufferView":25,"byteOffset":0,"componentType":5126,"count":3168,"max":[2.4131500720977783,0.37229999899864197,0.7429800033569336],"min":[-2.4131500720977783,-0.37229999899864197,-0.7429800033569336],"type":"VEC3"},{"bufferView":26,"byteOffset":0,"componentType":5126,"count":3168,"type":"VEC3"},{"bufferView":27,"byteOffset":0,"componentType":5126,"count":3168,"type":"VEC2"},{"bufferView":28,"byteOffset":0,"componentType":5125,"count":27264,"type":"SCALAR"},{"bufferView":29,"byteOffset":0,"componentType":5126,"count":27264,"max":[3.5620100498199463,3.965630054473877,4.571879863739014],"min":[-3.5620100498199463,-3.965630054473877,-4.571879863739014],"type":"VEC3"},{"bufferView":30,"byteOffset":0,"componentType":5126,"count":27264,"type":"VEC3"},{"bufferView":31,"byteOffset":0,"componentType":5126,"count":27264,"type":"VEC2"},{"bufferView":32,"byteOffset":0,"componentType":5125,"count":312,"type":"SCALAR"},{"bufferView":33,"byteOffset":0,"componentType":5126,"count":312,"max":[0.4323500096797943,0.7361199855804443,1.3200199604034424],"min":[-0.4323500096797943,-0.22082999348640442,1.1063899993896484],"type":"VEC3"},{"bufferView":34,"byteOffset":0,"componentType":5126,"count":312,"type":"VEC3"},{"bufferView":35,"byteOffset":0,"componentType":5126,"count":312,"type":"VEC2"},{"bufferView":36,"byteOffset":0,"componentType":5125,"count":2676,"type":"SCALAR"},{"bufferView":37,"byteOffset":0,"componentType":5126,"count":2676,"max":[2.854480028152466,1.3500299453735352,1.038059949874878],"min":[-2.854480028152466,-1.2159899473190308,-1.0877599716186523],"type":"VEC3"},{"bufferView":38,"byteOffset":0,"componentType":5126,"count":2676,"type":"VEC3"},{"bufferView":39,"byteOffset":0,"componentType":5126,"count":2676,"type":"VEC2"},{"bufferView":40,"byteOffset":0,"componentType":5125,"count":60,"type":"SCALAR"},{"bufferView":41,"byteOffset":0,"componentType":5126,"count":60,"max":[3.3423800468444824,3.859869956970215,4.470900058746338],"min":[-3.3423800468444824,-3.859869956970215,-4.470900058746338],"type":"VEC3"},{"bufferView":42,"byteOffset":0,"componentType":5126,"count":60,"type":"VEC3"},{"bufferView":43,"byteOffset":0,"componentType":5126,"count":60,"type":"VEC2"},{"bufferView":44,"byteOffset":0,"componentType":5125,"count":1272,"type":"SCALAR"},{"bufferView":45,"byteOffset":0,"componentType":5126,"count":1272,"max":[0.40099000930786133,-1.136780023574829,-0.966509997844696],"min":[-0.40099000930786133,-1.2735999822616577,-1.0711899995803833],"type":"VEC3"},{"bufferView":46,"byteOffset":0,"componentType":5126,"count":1272,"type":"VEC3"},{"bufferView":47,"byteOffset":0,"componentType":5126,"count":1272,"type":"VEC2"},{"bufferView":48,"byteOffset":0,"componentType":5125,"count":26208,"type":"SCALAR"},{"bufferView":49,"byteOffset":0,"componentType":5126,"count":26208,"max":[3.356790065765381,3.8433399200439453,4.472439765930176],"min":[-3.356790065765381,-3.8433399200439453,-4.472439765930176],"type":"VEC3"},{"bufferView":50,"byteOffset":0,"componentType":5126,"count":26208,"type":"VEC3"},{"bufferView":51,"byteOffset":0,"componentType":5126,"count":26208,"type":"VEC2"},{"bufferView":52,"byteOffset":0,"componentType":5125,"count":912,"type":"SCALAR"},{"bufferView":53,"byteOffset":0,"componentType":5126,"count":912,"max":[1.360010027885437,0.5453299880027771,0.9569500088691711],"min":[-1.360010027885437,-0.5453299880027771,-0.9569500088691711],"type":"VEC3"},{"bufferView":54,"byteOffset":0,"componentType":5126,"count":912,"type":"VEC3"},{"bufferView":55,"byteOffset":0,"componentType":5126,"count":912,"type":"VEC2"},{"bufferView":56,"byteOffset":0,"componentType":5125,"count":186,"type":"SCALAR"},{"bufferView":57,"byteOffset":0,"componentType":5126,"count":186,"max":[0.7692199945449829,-1.0445899963378906,0.7811400294303894],"min":[-0.7692199945449829,-1.3656799793243408,-0.7811400294303894],"type":"VEC3"},{"bufferView":58,"byteOffset":0,"componentType":5126,"count":186,"type":"VEC3"},{"bufferView":59,"byteOffset":0,"componentType":5126,"count":186,"type":"VEC2"},{"bufferView":60,"byteOffset":0,"componentType":5125,"count":1416,"type":"SCALAR"},{"bufferView":61,"byteOffset":0,"componentType":5126,"count":1416,"max":[0.8375899791717529,-0.9992499947547913,0.8375899791717529],"min":[-0.8375899791717529,-1.3780800104141235,-0.8375899791717529],"type":"VEC3"},{"bufferView":62,"byteOffset":0,"componentType":5126,"count":1416,"type":"VEC3"},{"bufferView":63,"byteOffset":0,"componentType":5126,"count":1416,"type":"VEC2"},{"bufferView":64,"byteOffset":0,"componentType":5125,"count":192,"type":"SCALAR"},{"bufferView":65,"byteOffset":0,"componentType":5126,"count":192,"max":[0.9575700163841248,1.1084599494934082,0.07139000296592712],"min":[-0.9575700163841248,0.9396799802780151,-0.07139000296592712],"type":"VEC3"},{"bufferView":66,"byteOffset":0,"componentType":5126,"count":192,"type":"VEC3"},{"bufferView":67,"byteOffset":0,"componentType":5126,"count":192,"type":"VEC2"},{"bufferView":68,"byteOffset":0,"componentType":5125,"count":468,"type":"SCALAR"},{"bufferView":69,"byteOffset":0,"componentType":5126,"count":468,"max":[0.9575700163841248,1.1084599494934082,0.07139000296592712],"min":[-0.9575700163841248,1.090630054473877,-0.07139000296592712],"type":"VEC3"},{"bufferView":70,"byteOffset":0,"componentType":5126,"count":468,"type":"VEC3"},{"bufferView":71,"byteOffset":0,"componentType":5126,"count":468,"type":"VEC2"},{"bufferView":72,"byteOffset":0,"componentType":5125,"count":6414,"type":"SCALAR"},{"bufferView":73,"byteOffset":0,"componentType":5126,"count":6414,"max":[0.8641200065612793,-0.8670899868011475,0.886489987373352],"min":[-0.8641200065612793,-1.0832899808883667,-0.8371800184249878],"type":"VEC3"},{"bufferView":74,"byteOffset":0,"componentType":5126,"count":6414,"type":"VEC3"},{"bufferView":75,"byteOffset":0,"componentType":5126,"count":6414,"type":"VEC2"}],"bufferViews":[{"buffer":0,"byteOffset":0,"byteLength":515220,"target":34963},{"buffer":0,"byteOffset":515220,"byteLength":1545660,"target":34962},{"buffer":0,"byteOffset":2060880,"byteLength":1545660,"target":34962},{"buffer":0,"byteOffset":3606540,"byteLength":1030440,"target":34962},{"buffer":0,"byteOffset":4636980,"byteLength":89268,"target":34963},{"buffer":0,"byteOffset":4726248,"byteLength":267804,"target":34962},{"buffer":0,"byteOffset":4994052,"byteLength":267804,"target":34962},{"buffer":0,"byteOffset":5261856,"byteLength":178536,"target":34962},{"buffer":0,"byteOffset":5440392,"byteLength":384,"target":34963},{"buffer":0,"byteOffset":5440776,"byteLength":1152,"target":34962},{"buffer":0,"byteOffset":5441928,"byteLength":1152,"target":34962},{"buffer":0,"byteOffset":5443080,"byteLength":768,"target":34962},{"buffer":0,"byteOffset":5443848,"byteLength":27552,"target":34963},{"buffer":0,"byteOffset":5471400,"byteLength":82656,"target":34962},{"buffer":0,"byteOffset":5554056,"byteLength":82656,"target":34962},{"buffer":0,"byteOffset":5636712,"byteLength":55104,"target":34962},{"buffer":0,"byteOffset":5691816,"byteLength":3948,"target":34963},{"buffer":0,"byteOffset":5695764,"byteLength":11844,"target":34962},{"buffer":0,"byteOffset":5707608,"byteLength":11844,"target":34962},{"buffer":0,"byteOffset":5719452,"byteLength":7896,"target":34962},{"buffer":0,"byteOffset":5727348,"byteLength":13440,"target":34963},{"buffer":0,"byteOffset":5740788,"byteLength":40320,"target":34962},{"buffer":0,"byteOffset":5781108,"byteLength":40320,"target":34962},{"buffer":0,"byteOffset":5821428,"byteLength":26880,"target":34962},{"buffer":0,"byteOffset":5848308,"byteLength":12672,"target":34963},{"buffer":0,"byteOffset":5860980,"byteLength":38016,"target":34962},{"buffer":0,"byteOffset":5898996,"byteLength":38016,"target":34962},{"buffer":0,"byteOffset":5937012,"byteLength":25344,"target":34962},{"buffer":0,"byteOffset":5962356,"byteLength":109056,"target":34963},{"buffer":0,"byteOffset":6071412,"byteLength":327168,"target":34962},{"buffer":0,"byteOffset":6398580,"byteLength":327168,"target":34962},{"buffer":0,"byteOffset":6725748,"byteLength":218112,"target":34962},{"buffer":0,"byteOffset":6943860,"byteLength":1248,"target":34963},{"buffer":0,"byteOffset":6945108,"byteLength":3744,"target":34962},{"buffer":0,"byteOffset":6948852,"byteLength":3744,"target":34962},{"buffer":0,"byteOffset":6952596,"byteLength":2496,"target":34962},{"buffer":0,"byteOffset":6955092,"byteLength":10704,"target":34963},{"buffer":0,"byteOffset":6965796,"byteLength":32112,"target":34962},{"buffer":0,"byteOffset":6997908,"byteLength":32112,"target":34962},{"buffer":0,"byteOffset":7030020,"byteLength":21408,"target":34962},{"buffer":0,"byteOffset":7051428,"byteLength":240,"target":34963},{"buffer":0,"byteOffset":7051668,"byteLength":720,"target":34962},{"buffer":0,"byteOffset":7052388,"byteLength":720,"target":34962},{"buffer":0,"byteOffset":7053108,"byteLength":480,"target":34962},{"buffer":0,"byteOffset":7053588,"byteLength":5088,"target":34963},{"buffer":0,"byteOffset":7058676,"byteLength":15264,"target":34962},{"buffer":0,"byteOffset":7073940,"byteLength":15264,"target":34962},{"buffer":0,"byteOffset":7089204,"byteLength":10176,"target":34962},{"buffer":0,"byteOffset":7099380,"byteLength":104832,"target":34963},{"buffer":0,"byteOffset":7204212,"byteLength":314496,"target":34962},{"buffer":0,"byteOffset":7518708,"byteLength":314496,"target":34962},{"buffer":0,"byteOffset":7833204,"byteLength":209664,"target":34962},{"buffer":0,"byteOffset":8042868,"byteLength":3648,"target":34963},{"buffer":0,"byteOffset":8046516,"byteLength":10944,"target":34962},{"buffer":0,"byteOffset":8057460,"byteLength":10944,"target":34962},{"buffer":0,"byteOffset":8068404,"byteLength":7296,"target":34962},{"buffer":0,"byteOffset":8075700,"byteLength":744,"target":34963},{"buffer":0,"byteOffset":8076444,"byteLength":2232,"target":34962},{"buffer":0,"byteOffset":8078676,"byteLength":2232,"target":34962},{"buffer":0,"byteOffset":8080908,"byteLength":1488,"target":34962},{"buffer":0,"byteOffset":8082396,"byteLength":5664,"target":34963},{"buffer":0,"byteOffset":8088060,"byteLength":16992,"target":34962},{"buffer":0,"byteOffset":8105052,"byteLength":16992,"target":34962},{"buffer":0,"byteOffset":8122044,"byteLength":11328,"target":34962},{"buffer":0,"byteOffset":8133372,"byteLength":768,"target":34963},{"buffer":0,"byteOffset":8134140,"byteLength":2304,"target":34962},{"buffer":0,"byteOffset":8136444,"byteLength":2304,"target":34962},{"buffer":0,"byteOffset":8138748,"byteLength":1536,"target":34962},{"buffer":0,"byteOffset":8140284,"byteLength":1872,"target":34963},{"buffer":0,"byteOffset":8142156,"byteLength":5616,"target":34962},{"buffer":0,"byteOffset":8147772,"byteLength":5616,"target":34962},{"buffer":0,"byteOffset":8153388,"byteLength":3744,"target":34962},{"buffer":0,"byteOffset":8157132,"byteLength":25656,"target":34963},{"buffer":0,"byteOffset":8182788,"byteLength":76968,"target":34962},{"buffer":0,"byteOffset":8259756,"byteLength":76968,"target":34962},{"buffer":0,"byteOffset":8336724,"byteLength":51312,"target":34962}],"cameras":[{"name":"Camera","type":"perspective","extras":{"targetDistance":0.714},"perspective":{"aspectRatio":1.3823191733639495,"yfov":0.6108652381980153,"zfar":47.0967096709671,"znear":0.003780978097809781}}],"scene":0,"scenes":[{"nodes":[0,34],"name":"TieFighter"}],"extensionsUsed":["KHR_texture_transform"],"buffers":[{"byteLength":8388036,"uri":"TieFighter.bin"}]}